<mxfile host="app.diagrams.net" modified="2024-01-11T16:25:31.488Z" agent="Mozilla/5.0 (Windows NT 10.0; Win64; x64) AppleWebKit/537.36 (KHTML, like Gecko) Chrome/118.0.0.0 YaBrowser/23.11.0.0 Safari/537.36" etag="KKJY8SOljjPB000uBsiA" version="22.1.18" type="device">
  <diagram name="Page-1" id="b5b7bab2-c9e2-2cf4-8b2a-24fd1a2a6d21">
    <mxGraphModel dx="2609" dy="442" grid="1" gridSize="10" guides="1" tooltips="1" connect="1" arrows="1" fold="1" page="1" pageScale="1" pageWidth="827" pageHeight="1169" background="none" math="0" shadow="0">
      <root>
        <mxCell id="0" />
        <mxCell id="1" parent="0" />
        <mxCell id="qHn6citVU96laSzn4toc-2" value="" style="shape=folder;fontStyle=1;spacingTop=10;tabWidth=100;tabHeight=35;tabPosition=left;html=1;whiteSpace=wrap;" vertex="1" parent="1">
          <mxGeometry x="-1580" y="135" width="190" height="305" as="geometry" />
        </mxCell>
        <mxCell id="uEByyfOQYLTDQO8j_g5M-1" value="" style="shape=folder;fontStyle=1;spacingTop=10;tabWidth=80;tabHeight=30;tabPosition=left;html=1;whiteSpace=wrap;" parent="1" vertex="1">
          <mxGeometry x="-1070" y="140" width="190" height="280" as="geometry" />
        </mxCell>
        <mxCell id="uEByyfOQYLTDQO8j_g5M-2" value="БД" style="text;html=1;strokeColor=none;fillColor=none;align=center;verticalAlign=middle;whiteSpace=wrap;rounded=0;" parent="1" vertex="1">
          <mxGeometry x="-1060" y="139" width="60" height="30" as="geometry" />
        </mxCell>
        <mxCell id="uEByyfOQYLTDQO8j_g5M-3" value="данные пользователей" style="shape=folder;fontStyle=1;spacingTop=10;tabWidth=40;tabHeight=14;tabPosition=left;html=1;whiteSpace=wrap;" parent="1" vertex="1">
          <mxGeometry x="-1050" y="340" width="110" height="70" as="geometry" />
        </mxCell>
        <mxCell id="uEByyfOQYLTDQO8j_g5M-4" value="голоса" style="shape=folder;fontStyle=1;spacingTop=10;tabWidth=40;tabHeight=14;tabPosition=left;html=1;whiteSpace=wrap;" parent="1" vertex="1">
          <mxGeometry x="-1030" y="270" width="70" height="50" as="geometry" />
        </mxCell>
        <mxCell id="uEByyfOQYLTDQO8j_g5M-7" value="выбранный голос" style="shape=folder;fontStyle=1;spacingTop=10;tabWidth=40;tabHeight=14;tabPosition=left;html=1;whiteSpace=wrap;" parent="1" vertex="1">
          <mxGeometry x="-1530" y="180" width="90" height="60" as="geometry" />
        </mxCell>
        <mxCell id="uEByyfOQYLTDQO8j_g5M-8" value="написанный текст" style="shape=folder;fontStyle=1;spacingTop=10;tabWidth=40;tabHeight=14;tabPosition=left;html=1;whiteSpace=wrap;" parent="1" vertex="1">
          <mxGeometry x="-1560" y="265.25" width="90" height="59.5" as="geometry" />
        </mxCell>
        <mxCell id="uEByyfOQYLTDQO8j_g5M-13" value="аудиофайл" style="shape=folder;fontStyle=1;spacingTop=10;tabWidth=40;tabHeight=14;tabPosition=left;html=1;whiteSpace=wrap;" parent="1" vertex="1">
          <mxGeometry x="-1030" y="190" width="70" height="50" as="geometry" />
        </mxCell>
        <mxCell id="uEByyfOQYLTDQO8j_g5M-14" value="&lt;font face=&quot;Helvetica&quot; style=&quot;font-size: 14px;&quot;&gt;&amp;lt;&amp;lt;import&amp;gt;&amp;gt;&lt;/font&gt;" style="endArrow=open;endSize=12;dashed=1;html=1;rounded=0;exitX=0;exitY=0;exitDx=90;exitDy=37;exitPerimeter=0;entryX=0;entryY=0;entryDx=0;entryDy=50;entryPerimeter=0;" parent="1" source="uEByyfOQYLTDQO8j_g5M-7" target="uEByyfOQYLTDQO8j_g5M-6" edge="1">
          <mxGeometry width="160" relative="1" as="geometry">
            <mxPoint x="-1470" y="280" as="sourcePoint" />
            <mxPoint x="-1310" y="280" as="targetPoint" />
          </mxGeometry>
        </mxCell>
        <mxCell id="uEByyfOQYLTDQO8j_g5M-15" value="&lt;font style=&quot;font-size: 14px;&quot;&gt;&amp;lt;&amp;lt;import&amp;gt;&amp;gt;&lt;/font&gt;" style="endArrow=open;endSize=12;dashed=1;html=1;rounded=0;entryX=0;entryY=0;entryDx=0;entryDy=70;entryPerimeter=0;" parent="1" target="uEByyfOQYLTDQO8j_g5M-6" edge="1">
          <mxGeometry width="160" relative="1" as="geometry">
            <mxPoint x="-1470" y="300" as="sourcePoint" />
            <mxPoint x="-1400" y="450" as="targetPoint" />
          </mxGeometry>
        </mxCell>
        <mxCell id="uEByyfOQYLTDQO8j_g5M-16" value="&lt;font style=&quot;font-size: 14px;&quot;&gt;&amp;lt;&amp;lt;import&amp;gt;&amp;gt;&lt;/font&gt;" style="endArrow=open;endSize=12;dashed=1;html=1;rounded=0;exitX=0;exitY=0;exitDx=160;exitDy=50;exitPerimeter=0;entryX=0;entryY=0;entryDx=0;entryDy=32;entryPerimeter=0;" parent="1" source="uEByyfOQYLTDQO8j_g5M-6" target="uEByyfOQYLTDQO8j_g5M-13" edge="1">
          <mxGeometry width="160" relative="1" as="geometry">
            <mxPoint x="-550" y="670" as="sourcePoint" />
            <mxPoint x="-666.997391304348" y="280" as="targetPoint" />
          </mxGeometry>
        </mxCell>
        <mxCell id="uEByyfOQYLTDQO8j_g5M-17" value="&lt;font style=&quot;font-size: 14px;&quot;&gt;&amp;lt;&amp;lt;import&amp;gt;&amp;gt;&lt;/font&gt;" style="endArrow=open;endSize=12;dashed=1;html=1;rounded=0;exitX=0;exitY=0;exitDx=160;exitDy=90;exitPerimeter=0;entryX=0;entryY=0;entryDx=0;entryDy=42;entryPerimeter=0;" parent="1" source="uEByyfOQYLTDQO8j_g5M-6" target="uEByyfOQYLTDQO8j_g5M-3" edge="1">
          <mxGeometry x="-0.0025" width="160" relative="1" as="geometry">
            <mxPoint x="-1215" y="480" as="sourcePoint" />
            <mxPoint x="-1325" y="467.7777777777778" as="targetPoint" />
            <mxPoint as="offset" />
          </mxGeometry>
        </mxCell>
        <mxCell id="uEByyfOQYLTDQO8j_g5M-19" value="Данные пользователя" style="shape=folder;fontStyle=1;spacingTop=10;tabWidth=40;tabHeight=14;tabPosition=left;html=1;whiteSpace=wrap;" parent="1" vertex="1">
          <mxGeometry x="-1525" y="360" width="100" height="69" as="geometry" />
        </mxCell>
        <mxCell id="uEByyfOQYLTDQO8j_g5M-21" value="&lt;font style=&quot;font-size: 14px;&quot;&gt;&amp;lt;&amp;lt;import&amp;gt;&amp;gt;&lt;/font&gt;" style="endArrow=open;endSize=12;dashed=1;html=1;rounded=0;exitX=0;exitY=0;exitDx=100;exitDy=41.5;exitPerimeter=0;entryX=0;entryY=0;entryDx=0;entryDy=90;entryPerimeter=0;" parent="1" source="uEByyfOQYLTDQO8j_g5M-19" target="uEByyfOQYLTDQO8j_g5M-6" edge="1">
          <mxGeometry width="160" relative="1" as="geometry">
            <mxPoint x="-1410" y="430" as="sourcePoint" />
            <mxPoint x="-1230" y="390" as="targetPoint" />
          </mxGeometry>
        </mxCell>
        <mxCell id="uEByyfOQYLTDQO8j_g5M-23" value="&lt;font style=&quot;font-size: 14px;&quot;&gt;&amp;lt;&amp;lt;access&amp;gt;&amp;gt;&lt;/font&gt;" style="endArrow=open;endSize=12;dashed=1;html=1;rounded=0;entryX=0;entryY=0;entryDx=0;entryDy=32;entryPerimeter=0;exitX=0;exitY=0;exitDx=160;exitDy=70;exitPerimeter=0;" parent="1" source="uEByyfOQYLTDQO8j_g5M-6" target="uEByyfOQYLTDQO8j_g5M-4" edge="1">
          <mxGeometry width="160" relative="1" as="geometry">
            <mxPoint x="-1060" y="430" as="sourcePoint" />
            <mxPoint x="-900" y="430" as="targetPoint" />
          </mxGeometry>
        </mxCell>
        <mxCell id="qHn6citVU96laSzn4toc-3" value="" style="group" vertex="1" connectable="0" parent="1">
          <mxGeometry x="-1300" y="227.5" width="150" height="120" as="geometry" />
        </mxCell>
        <mxCell id="uEByyfOQYLTDQO8j_g5M-6" value="" style="shape=folder;fontStyle=1;spacingTop=10;tabWidth=80;tabHeight=30;tabPosition=left;html=1;whiteSpace=wrap;" parent="qHn6citVU96laSzn4toc-3" vertex="1">
          <mxGeometry width="150" height="120" as="geometry" />
        </mxCell>
        <mxCell id="uEByyfOQYLTDQO8j_g5M-11" value="UI" style="text;html=1;strokeColor=none;fillColor=none;align=center;verticalAlign=middle;whiteSpace=wrap;rounded=0;" parent="qHn6citVU96laSzn4toc-3" vertex="1">
          <mxGeometry x="10" width="60" height="30" as="geometry" />
        </mxCell>
        <mxCell id="qHn6citVU96laSzn4toc-1" value="Программа" style="shape=folder;fontStyle=1;spacingTop=10;tabWidth=40;tabHeight=14;tabPosition=left;html=1;whiteSpace=wrap;" vertex="1" parent="qHn6citVU96laSzn4toc-3">
          <mxGeometry x="40" y="50" width="70" height="50" as="geometry" />
        </mxCell>
        <mxCell id="qHn6citVU96laSzn4toc-4" value="Пользователь" style="text;html=1;align=center;verticalAlign=middle;resizable=0;points=[];autosize=1;strokeColor=none;fillColor=none;" vertex="1" parent="1">
          <mxGeometry x="-1580" y="139" width="100" height="30" as="geometry" />
        </mxCell>
      </root>
    </mxGraphModel>
  </diagram>
</mxfile>
